<svg width="1237" height="1205" viewBox="0 0 1237 1205" fill="none" xmlns="http://www.w3.org/2000/svg">
<ellipse cx="618.5" cy="602.5" rx="618.5" ry="602.5" fill="#F300EA" fill-opacity="0.29"/>
<path d="M482.703 1084.73C481.25 1091.93 478.191 1097.68 473.527 1101.99C468.887 1106.28 463.402 1108.43 457.074 1108.43C451.309 1108.43 446.984 1106.82 444.102 1103.61C441.219 1100.38 439.777 1095.54 439.777 1089.09C439.777 1083.02 441.207 1076.77 444.066 1070.35C446.949 1063.91 450.641 1058.7 455.141 1054.74C458.141 1052.09 461.316 1050.77 464.668 1050.77C466.801 1050.77 469.613 1051.47 473.105 1052.88C477.371 1054.57 479.504 1056.43 479.504 1058.47C479.504 1059.43 479.152 1060.29 478.449 1061.04C477.746 1061.79 476.902 1062.16 475.918 1062.16C475.402 1062.16 474.676 1061.87 473.738 1061.28C470.152 1059.1 467.129 1058.01 464.668 1058.01C462.91 1058.01 461.07 1058.93 459.148 1060.75C458.188 1061.67 456.805 1063.33 455 1065.75C449.586 1072.92 446.879 1080.7 446.879 1089.09C446.879 1093.5 447.559 1096.58 448.918 1098.34C450.395 1100.26 453.113 1101.22 457.074 1101.22C461.27 1101.22 464.914 1099.89 468.008 1097.25C471.266 1094.43 473.539 1090.41 474.828 1085.19C468.336 1085.52 462.77 1086.77 458.129 1088.95C457.59 1089.21 457.062 1089.34 456.547 1089.34C455.516 1089.34 454.66 1088.94 453.98 1088.14C453.348 1087.41 453.031 1086.57 453.031 1085.61C453.031 1084.32 453.652 1083.29 454.895 1082.52C459.957 1079.42 468.688 1077.88 481.086 1077.88C482.094 1077.88 482.938 1078.21 483.617 1078.89C484.297 1079.57 484.637 1080.43 484.637 1081.46C484.637 1082.98 483.992 1084.07 482.703 1084.73ZM521.973 1104.56C519.324 1105.8 515.164 1106.91 509.492 1107.9C504.266 1108.81 500 1109.27 496.695 1109.27C494.328 1109.27 492.629 1108.91 491.598 1108.18C490.191 1107.2 489.488 1105.39 489.488 1102.77L490.191 1091.13C490.801 1080.39 491.105 1068.49 491.105 1055.41C491.105 1054.4 491.434 1053.55 492.09 1052.84C492.77 1052.14 493.602 1051.79 494.586 1051.79C495.594 1051.79 496.426 1052.14 497.082 1052.84C497.762 1053.55 498.102 1054.4 498.102 1055.41C498.102 1068.65 497.785 1080.7 497.152 1091.55L496.695 1096.89C496.508 1098.84 496.438 1100.56 496.484 1102.06C502.602 1102.13 510.336 1100.69 519.688 1097.74C520.086 1097.62 520.461 1097.56 520.812 1097.56C521.82 1097.56 522.664 1097.96 523.344 1098.76C523.93 1099.48 524.223 1100.32 524.223 1101.25C524.223 1102.75 523.473 1103.86 521.973 1104.56ZM530.305 1097.25C530.281 1096.26 530.609 1095.46 531.289 1094.86C531.992 1094.22 532.848 1093.91 533.855 1093.91C535.004 1093.91 536.012 1094.56 536.879 1095.88C538.074 1097.66 539.141 1098.86 540.078 1099.5C542.07 1100.81 544.965 1101.46 548.762 1101.46C552.395 1101.46 555.77 1100.68 558.887 1099.11C562.871 1097.09 564.863 1094.29 564.863 1090.71C564.863 1087.75 563.188 1085.42 559.836 1083.71C557 1082.23 553.496 1081.44 549.324 1081.32C545.621 1081.18 542.469 1080.37 539.867 1078.89C536.539 1077 534.875 1074.28 534.875 1070.74C534.875 1066.57 537.242 1062.76 541.977 1059.31C546.5 1056.05 551.176 1054.43 556.004 1054.43C558.277 1054.43 560.844 1054.81 563.703 1055.59C567.5 1056.59 569.398 1057.88 569.398 1059.45C569.398 1061.52 568.344 1062.55 566.234 1062.55C565.297 1062.55 563.656 1062.3 561.312 1061.81C558.969 1061.29 557.152 1061.05 555.863 1061.07C552.207 1061.12 549.102 1062.02 546.547 1063.78C543.922 1065.58 542.609 1067.77 542.609 1070.35C542.609 1072.3 544.344 1073.67 547.812 1074.46C549.102 1074.77 551.598 1075.05 555.301 1075.31C560.668 1075.71 564.863 1077.39 567.887 1080.37C570.652 1083.09 572.035 1086.41 572.035 1090.32C572.035 1095.9 569.457 1100.35 564.301 1103.68C559.824 1106.56 554.633 1108 548.727 1108C544.438 1108 540.512 1107.18 536.949 1105.54C532.59 1103.53 530.375 1100.76 530.305 1097.25ZM654.16 1108.92C652.895 1108.92 651.852 1108.26 651.031 1106.95C650.328 1105.82 649.695 1103.95 649.133 1101.32L647.867 1095.28C646.906 1091.53 645.383 1083.25 643.297 1070.46L636.266 1091.66L634.191 1098.34C633.348 1100.98 632.469 1103.15 631.555 1104.84C630.57 1106.62 629.246 1107.51 627.582 1107.51C626.199 1107.51 625.109 1106.76 624.312 1105.26C623.797 1104.28 623.328 1103.02 622.906 1101.5L621.887 1097.6C619.52 1089.32 617.434 1080.46 615.629 1071.02L614.363 1077.31L609.828 1095.88C609.641 1098.05 609.055 1101.28 608.07 1105.54C607.367 1107.37 606.207 1108.29 604.59 1108.29C603.441 1108.29 602.527 1107.88 601.848 1107.05C601.262 1106.35 600.969 1105.48 600.969 1104.45C600.969 1100.54 601.777 1095.73 603.395 1090.04L607.262 1075.87L609.301 1064.8C610.332 1059.62 611.422 1056.23 612.57 1054.64C613.508 1053.28 614.668 1052.6 616.051 1052.6C617.574 1052.6 618.711 1053.46 619.461 1055.2C620.375 1057.29 621.359 1061.54 622.414 1067.96C623.656 1075.67 625.59 1084.02 628.215 1092.99C631.684 1083.97 634.684 1074.57 637.215 1064.8L638.27 1059.66C638.691 1057.6 639.242 1055.94 639.922 1054.67C640.836 1052.94 642.09 1052.07 643.684 1052.07C645.699 1052.07 647.234 1054.02 648.289 1057.91C648.664 1059.24 649.121 1062.01 649.66 1066.2C651.043 1076.8 652.766 1085.84 654.828 1093.34L656.551 1099.39C657.441 1102.62 657.887 1104.62 657.887 1105.37C657.887 1106.38 657.5 1107.22 656.727 1107.9C655.977 1108.58 655.121 1108.92 654.16 1108.92ZM681.898 1107.62C676.602 1107.62 672.312 1106.29 669.031 1103.64C665.445 1100.71 663.652 1096.61 663.652 1091.34C663.652 1085.25 665.129 1080.14 668.082 1076.01C671.293 1071.51 675.582 1069.26 680.949 1069.26C684.84 1069.26 688.016 1069.92 690.477 1071.23C693.5 1072.85 695.012 1075.33 695.012 1078.68C695.012 1081.03 693.688 1083.16 691.039 1085.08C689.867 1085.93 687.383 1087.24 683.586 1089.02L670.156 1095.38C671.469 1097.33 673.098 1098.79 675.043 1099.78C677.012 1100.76 679.297 1101.25 681.898 1101.25C683.516 1101.25 685.414 1100.95 687.594 1100.34C690.359 1099.57 692.141 1098.56 692.938 1097.32C693.734 1096.05 694.59 1095.42 695.504 1095.42C696.324 1095.42 697.051 1095.73 697.684 1096.37C698.34 1096.98 698.668 1097.69 698.668 1098.51C698.668 1101.11 696.57 1103.35 692.375 1105.23C688.789 1106.82 685.297 1107.62 681.898 1107.62ZM680.949 1075.59C678.09 1075.59 675.711 1076.7 673.812 1078.93C671.914 1081.13 670.496 1084.46 669.559 1088.91L680.352 1083.78C684.594 1081.72 687.617 1079.93 689.422 1078.4C687.406 1076.53 684.582 1075.59 680.949 1075.59ZM737.305 1074.96C737.023 1078.4 736.883 1081.85 736.883 1085.29C736.883 1093.1 737.246 1098.99 737.973 1102.98C738.02 1103.3 738.043 1103.57 738.043 1103.79C738.043 1104.72 737.715 1105.5 737.059 1106.11C736.402 1106.71 735.641 1107.02 734.773 1107.02C733.32 1107.02 732.254 1105.96 731.574 1103.86C729.887 1105.1 728.129 1106.04 726.301 1106.67C724.496 1107.3 722.609 1107.62 720.641 1107.62C715.789 1107.62 711.77 1106 708.582 1102.77C705.301 1099.46 703.66 1095.22 703.66 1090.04C703.66 1083.78 705.312 1078.77 708.617 1074.99C711.945 1071.22 716.258 1069.33 721.555 1069.33C724.273 1069.33 726.371 1069.75 727.848 1070.6L731.152 1073.02C731.48 1063.16 731.867 1056.51 732.312 1053.09C732.617 1051 733.684 1049.96 735.512 1049.96C737.645 1049.96 738.711 1051.1 738.711 1053.37C738.711 1056.63 738.242 1063.82 737.305 1074.96ZM721.695 1075.87C717.758 1075.87 714.805 1077.04 712.836 1079.39C710.867 1081.71 709.883 1085.21 709.883 1089.9C709.883 1092.92 710.949 1095.52 713.082 1097.7C715.238 1099.88 717.758 1100.97 720.641 1100.97C722.609 1100.97 724.273 1100.61 725.633 1099.88C726.43 1099.46 727.73 1098.49 729.535 1096.96C729.887 1096.66 730.227 1096.3 730.555 1095.88L730.449 1089.79L730.484 1085.71L730.555 1081.57C729.664 1079.67 728.48 1078.25 727.004 1077.31C725.527 1076.35 723.758 1075.87 721.695 1075.87ZM753.969 1061.49C752.844 1061.49 751.871 1061.09 751.051 1060.3C750.23 1059.5 749.82 1058.54 749.82 1057.41C749.82 1056.29 750.23 1055.33 751.051 1054.53C751.871 1053.73 752.844 1053.34 753.969 1053.34C755.094 1053.34 756.055 1053.73 756.852 1054.53C757.672 1055.33 758.082 1056.29 758.082 1057.41C758.082 1058.54 757.672 1059.5 756.852 1060.3C756.055 1061.09 755.094 1061.49 753.969 1061.49ZM755.551 1090.04C755.551 1091.45 755.586 1093.55 755.656 1096.37C755.75 1099.16 755.797 1101.25 755.797 1102.66C755.797 1103.69 755.48 1104.54 754.848 1105.19C754.215 1105.85 753.383 1106.18 752.352 1106.18C751.344 1106.18 750.512 1105.85 749.855 1105.19C749.223 1104.54 748.906 1103.69 748.906 1102.66C748.906 1101.25 748.859 1099.16 748.766 1096.37C748.695 1093.55 748.66 1091.45 748.66 1090.04C748.66 1087.84 748.777 1085.09 749.012 1081.81C749.246 1078.51 749.363 1075.75 749.363 1073.55C749.363 1072.5 749.68 1071.64 750.312 1070.98C750.969 1070.33 751.801 1070 752.809 1070C753.816 1070 754.637 1070.33 755.27 1070.98C755.926 1071.64 756.254 1072.5 756.254 1073.55C756.254 1075.75 756.137 1078.51 755.902 1081.81C755.668 1085.09 755.551 1087.84 755.551 1090.04ZM794.891 1108.32C794.445 1108.32 793.637 1107.8 792.465 1106.77C791.41 1105.81 790.625 1104.96 790.109 1104.21C787.859 1105.43 785.879 1106.34 784.168 1106.95C782.457 1107.58 781.027 1107.9 779.879 1107.9C774.395 1107.9 770.398 1106.35 767.891 1103.26C765.523 1100.35 764.34 1095.9 764.34 1089.9C764.34 1084.23 766.285 1079.38 770.176 1075.34C774.09 1071.31 778.754 1069.3 784.168 1069.3C786.207 1069.3 788.492 1069.82 791.023 1070.88C794.211 1072.19 795.805 1073.77 795.805 1075.62C795.805 1076.26 795.57 1076.82 795.102 1077.31C794.867 1078.2 794.68 1079.67 794.539 1081.71C794.422 1083.75 794.352 1086.36 794.328 1089.55C794.305 1092.45 794.504 1094.75 794.926 1096.44C795.16 1097.47 795.898 1099.53 797.141 1102.62C797.305 1103.05 797.574 1103.67 797.949 1104.49L798.16 1105.09C798.16 1106.02 797.832 1106.8 797.176 1107.41C796.52 1108.02 795.758 1108.32 794.891 1108.32ZM787.578 1083.89C787.578 1082.88 787.637 1081.79 787.754 1080.62C787.895 1079.42 788.094 1078.16 788.352 1076.82C787.484 1076.38 786.734 1076.05 786.102 1075.84C785.492 1075.62 785 1075.52 784.625 1075.52C780.992 1075.52 777.852 1077.01 775.203 1079.98C772.578 1082.94 771.266 1086.35 771.266 1090.21C771.266 1094.06 771.945 1096.94 773.305 1098.86C774.664 1100.79 776.703 1101.75 779.422 1101.75C781.672 1101.75 783.582 1101.34 785.152 1100.52C785.996 1100.07 787.18 1099.18 788.703 1097.84C787.953 1091.63 787.578 1086.98 787.578 1083.89Z" fill="black"/>
<ellipse cx="334" cy="341" rx="120" ry="124" fill="#6692E7"/>
<ellipse cx="277.5" cy="576" rx="214.5" ry="176" fill="#185CDF" fill-opacity="0.49"/>
<ellipse cx="592" cy="360" rx="120" ry="124" fill="#5DAF7E"/>
<ellipse cx="573.5" cy="593" rx="214.5" ry="176" fill="#18DF2C" fill-opacity="0.49"/>
<ellipse cx="869" cy="341" rx="120" ry="124" fill="#EC4C4C" fill-opacity="0.97"/>
<ellipse cx="937.5" cy="576" rx="214.5" ry="176" fill="#DF1854" fill-opacity="0.49"/>
<path d="M538.978 836.794L644.777 935.333" stroke="#29DF5C" stroke-width="16" stroke-linecap="round"/>
<path d="M645.422 936.535H780.897" stroke="#29DF5C" stroke-width="16" stroke-linecap="round"/>
<path d="M577.153 812.35C577.153 812.35 536.653 779.287 499.153 797.448C461.653 815.61 436.153 864.973 458.153 884.997C480.153 905.022 535.153 964.164 577.153 960.439C619.153 956.713 644.653 935.292 644.653 935.292" stroke="#29DF5C" stroke-width="16"/>
<path d="M502.609 853.707V1004.72" stroke="#293BDF" stroke-width="16" stroke-linecap="round"/>
<path d="M506 853.471L586 939.157" stroke="#293BDF" stroke-width="16" stroke-linecap="round"/>
<path d="M586 939.157L658 866.51" stroke="#293BDF" stroke-width="16" stroke-linecap="round"/>
<path d="M659.032 869.403V1009.15" stroke="#293BDF" stroke-width="16" stroke-linecap="round"/>
<path d="M758.714 836.273C758.714 836.273 732.214 831.616 729.714 832.082C727.214 832.547 723.714 832.082 717.214 836.273C710.714 840.464 706.214 848.381 706.214 848.381C706.214 848.381 699.214 857.695 698.214 863.749C697.214 869.802 698.714 874.925 706.214 879.116C713.714 883.307 713.714 883.307 713.714 883.307C713.714 883.307 713.214 883.307 723.714 887.499C734.214 891.69 735.714 894.484 735.714 894.484C735.714 894.484 741.191 900.674 743.714 905.195C746.392 909.992 746.714 910.317 748.714 918.234C750.714 926.151 751.214 928.945 750.714 933.136C750.214 937.327 748.714 943.847 748.714 943.847C745.59 949.666 752.214 951.298 740.714 958.749C729.214 966.2 729.714 964.803 729.714 964.803L717.214 968.994C713.714 969.773 710.74 970.389 703.714 971.788H693.214" stroke="#FE0514" stroke-width="12"/>
</svg>
