<svg width="520" height="500" viewBox="0 0 520 500" fill="none" xmlns="http://www.w3.org/2000/svg">
<ellipse cx="260" cy="250" rx="260" ry="250" fill="#59CE46"/>
<path d="M146.414 147.578H135.445V178H130.969V147.578H120.023V143.875H146.414V147.578ZM170.766 162.227H155.977V174.32H173.156V178H151.477V143.875H172.922V147.578H155.977V158.547H170.766V162.227ZM184.57 143.875L195.727 171.719L206.883 143.875H212.719V178H208.219V164.711L208.641 150.367L197.438 178H193.992L182.812 150.438L183.258 164.711V178H178.758V143.875H184.57ZM225.164 164.641V178H220.664V143.875H233.25C236.984 143.875 239.906 144.828 242.016 146.734C244.141 148.641 245.203 151.164 245.203 154.305C245.203 157.617 244.164 160.172 242.086 161.969C240.023 163.75 237.062 164.641 233.203 164.641H225.164ZM225.164 160.961H233.25C235.656 160.961 237.5 160.398 238.781 159.273C240.062 158.133 240.703 156.492 240.703 154.352C240.703 152.32 240.062 150.695 238.781 149.477C237.5 148.258 235.742 147.625 233.508 147.578H225.164V160.961ZM277.195 162.039C277.195 165.383 276.633 168.305 275.508 170.805C274.383 173.289 272.789 175.188 270.727 176.5C268.664 177.812 266.258 178.469 263.508 178.469C260.82 178.469 258.438 177.812 256.359 176.5C254.281 175.172 252.664 173.289 251.508 170.852C250.367 168.398 249.781 165.562 249.75 162.344V159.883C249.75 156.602 250.32 153.703 251.461 151.188C252.602 148.672 254.211 146.75 256.289 145.422C258.383 144.078 260.773 143.406 263.461 143.406C266.195 143.406 268.602 144.07 270.68 145.398C272.773 146.711 274.383 148.625 275.508 151.141C276.633 153.641 277.195 156.555 277.195 159.883V162.039ZM272.719 159.836C272.719 155.789 271.906 152.688 270.281 150.531C268.656 148.359 266.383 147.273 263.461 147.273C260.617 147.273 258.375 148.359 256.734 150.531C255.109 152.688 254.273 155.688 254.227 159.531V162.039C254.227 165.961 255.047 169.047 256.688 171.297C258.344 173.531 260.617 174.648 263.508 174.648C266.414 174.648 268.664 173.594 270.258 171.484C271.852 169.359 272.672 166.32 272.719 162.367V159.836ZM296.461 164.195H288.445V178H283.922V143.875H295.219C299.062 143.875 302.016 144.75 304.078 146.5C306.156 148.25 307.195 150.797 307.195 154.141C307.195 156.266 306.617 158.117 305.461 159.695C304.32 161.273 302.727 162.453 300.68 163.234L308.695 177.719V178H303.867L296.461 164.195ZM288.445 160.516H295.359C297.594 160.516 299.367 159.938 300.68 158.781C302.008 157.625 302.672 156.078 302.672 154.141C302.672 152.031 302.039 150.414 300.773 149.289C299.523 148.164 297.711 147.594 295.336 147.578H288.445V160.516ZM332.367 169.094H318.07L314.859 178H310.219L323.25 143.875H327.188L340.242 178H335.625L332.367 169.094ZM319.43 165.391H331.031L325.219 149.43L319.43 165.391ZM357.352 164.195H349.336V178H344.812V143.875H356.109C359.953 143.875 362.906 144.75 364.969 146.5C367.047 148.25 368.086 150.797 368.086 154.141C368.086 156.266 367.508 158.117 366.352 159.695C365.211 161.273 363.617 162.453 361.57 163.234L369.586 177.719V178H364.758L357.352 164.195ZM349.336 160.516H356.25C358.484 160.516 360.258 159.938 361.57 158.781C362.898 157.625 363.562 156.078 363.562 154.141C363.562 152.031 362.93 150.414 361.664 149.289C360.414 148.164 358.602 147.594 356.227 147.578H349.336V160.516ZM383.695 161.008L392.602 143.875H397.711L385.945 165.273V178H381.445V165.273L369.68 143.875H374.836L383.695 161.008ZM199.734 230.32H215.906V234H195.211V199.875H199.734V230.32ZM245.742 218.039C245.742 221.383 245.18 224.305 244.055 226.805C242.93 229.289 241.336 231.188 239.273 232.5C237.211 233.812 234.805 234.469 232.055 234.469C229.367 234.469 226.984 233.812 224.906 232.5C222.828 231.172 221.211 229.289 220.055 226.852C218.914 224.398 218.328 221.562 218.297 218.344V215.883C218.297 212.602 218.867 209.703 220.008 207.188C221.148 204.672 222.758 202.75 224.836 201.422C226.93 200.078 229.32 199.406 232.008 199.406C234.742 199.406 237.148 200.07 239.227 201.398C241.32 202.711 242.93 204.625 244.055 207.141C245.18 209.641 245.742 212.555 245.742 215.883V218.039ZM241.266 215.836C241.266 211.789 240.453 208.688 238.828 206.531C237.203 204.359 234.93 203.273 232.008 203.273C229.164 203.273 226.922 204.359 225.281 206.531C223.656 208.688 222.82 211.688 222.773 215.531V218.039C222.773 221.961 223.594 225.047 225.234 227.297C226.891 229.531 229.164 230.648 232.055 230.648C234.961 230.648 237.211 229.594 238.805 227.484C240.398 225.359 241.219 222.32 241.266 218.367V215.836ZM277.688 229.523C276.531 231.18 274.914 232.422 272.836 233.25C270.773 234.062 268.367 234.469 265.617 234.469C262.836 234.469 260.367 233.82 258.211 232.523C256.055 231.211 254.383 229.352 253.195 226.945C252.023 224.539 251.422 221.75 251.391 218.578V215.602C251.391 210.461 252.586 206.477 254.977 203.648C257.383 200.82 260.758 199.406 265.102 199.406C268.664 199.406 271.531 200.32 273.703 202.148C275.875 203.961 277.203 206.539 277.688 209.883H273.188C272.344 205.367 269.656 203.109 265.125 203.109C262.109 203.109 259.82 204.172 258.258 206.297C256.711 208.406 255.93 211.469 255.914 215.484V218.273C255.914 222.102 256.789 225.148 258.539 227.414C260.289 229.664 262.656 230.789 265.641 230.789C267.328 230.789 268.805 230.602 270.07 230.227C271.336 229.852 272.383 229.219 273.211 228.328V220.664H265.312V217.008H277.688V229.523ZM311.461 218.039C311.461 221.383 310.898 224.305 309.773 226.805C308.648 229.289 307.055 231.188 304.992 232.5C302.93 233.812 300.523 234.469 297.773 234.469C295.086 234.469 292.703 233.812 290.625 232.5C288.547 231.172 286.93 229.289 285.773 226.852C284.633 224.398 284.047 221.562 284.016 218.344V215.883C284.016 212.602 284.586 209.703 285.727 207.188C286.867 204.672 288.477 202.75 290.555 201.422C292.648 200.078 295.039 199.406 297.727 199.406C300.461 199.406 302.867 200.07 304.945 201.398C307.039 202.711 308.648 204.625 309.773 207.141C310.898 209.641 311.461 212.555 311.461 215.883V218.039ZM306.984 215.836C306.984 211.789 306.172 208.688 304.547 206.531C302.922 204.359 300.648 203.273 297.727 203.273C294.883 203.273 292.641 204.359 291 206.531C289.375 208.688 288.539 211.688 288.492 215.531V218.039C288.492 221.961 289.312 225.047 290.953 227.297C292.609 229.531 294.883 230.648 297.773 230.648C300.68 230.648 302.93 229.594 304.523 227.484C306.117 225.359 306.938 222.32 306.984 218.367V215.836ZM160.875 285.523C159.719 287.18 158.102 288.422 156.023 289.25C153.961 290.062 151.555 290.469 148.805 290.469C146.023 290.469 143.555 289.82 141.398 288.523C139.242 287.211 137.57 285.352 136.383 282.945C135.211 280.539 134.609 277.75 134.578 274.578V271.602C134.578 266.461 135.773 262.477 138.164 259.648C140.57 256.82 143.945 255.406 148.289 255.406C151.852 255.406 154.719 256.32 156.891 258.148C159.062 259.961 160.391 262.539 160.875 265.883H156.375C155.531 261.367 152.844 259.109 148.312 259.109C145.297 259.109 143.008 260.172 141.445 262.297C139.898 264.406 139.117 267.469 139.102 271.484V274.273C139.102 278.102 139.977 281.148 141.727 283.414C143.477 285.664 145.844 286.789 148.828 286.789C150.516 286.789 151.992 286.602 153.258 286.227C154.523 285.852 155.57 285.219 156.398 284.328V276.664H148.5V273.008H160.875V285.523ZM172.922 286.32H189.094V290H168.398V255.875H172.922V286.32ZM204.281 274.789C200.422 273.68 197.609 272.32 195.844 270.711C194.094 269.086 193.219 267.086 193.219 264.711C193.219 262.023 194.289 259.805 196.43 258.055C198.586 256.289 201.383 255.406 204.82 255.406C207.164 255.406 209.25 255.859 211.078 256.766C212.922 257.672 214.344 258.922 215.344 260.516C216.359 262.109 216.867 263.852 216.867 265.742H212.344C212.344 263.68 211.688 262.062 210.375 260.891C209.062 259.703 207.211 259.109 204.82 259.109C202.602 259.109 200.867 259.602 199.617 260.586C198.383 261.555 197.766 262.906 197.766 264.641C197.766 266.031 198.352 267.211 199.523 268.18C200.711 269.133 202.719 270.008 205.547 270.805C208.391 271.602 210.609 272.484 212.203 273.453C213.812 274.406 215 275.523 215.766 276.805C216.547 278.086 216.938 279.594 216.938 281.328C216.938 284.094 215.859 286.312 213.703 287.984C211.547 289.641 208.664 290.469 205.055 290.469C202.711 290.469 200.523 290.023 198.492 289.133C196.461 288.227 194.891 286.992 193.781 285.43C192.688 283.867 192.141 282.094 192.141 280.109H196.664C196.664 282.172 197.422 283.805 198.938 285.008C200.469 286.195 202.508 286.789 205.055 286.789C207.43 286.789 209.25 286.305 210.516 285.336C211.781 284.367 212.414 283.047 212.414 281.375C212.414 279.703 211.828 278.414 210.656 277.508C209.484 276.586 207.359 275.68 204.281 274.789ZM240.445 255.875L251.602 283.719L262.758 255.875H268.594V290H264.094V276.711L264.516 262.367L253.312 290H249.867L238.688 262.438L239.133 276.711V290H234.633V255.875H240.445ZM295.828 274.227H281.039V286.32H298.219V290H276.539V255.875H297.984V259.578H281.039V270.547H295.828V274.227ZM303.82 290V255.875H313.453C316.422 255.875 319.047 256.531 321.328 257.844C323.609 259.156 325.367 261.023 326.602 263.445C327.852 265.867 328.484 268.648 328.5 271.789V273.969C328.5 277.188 327.875 280.008 326.625 282.43C325.391 284.852 323.617 286.711 321.305 288.008C319.008 289.305 316.328 289.969 313.266 290H303.82ZM308.32 259.578V286.32H313.055C316.523 286.32 319.219 285.242 321.141 283.086C323.078 280.93 324.047 277.859 324.047 273.875V271.883C324.047 268.008 323.133 265 321.305 262.859C319.492 260.703 316.914 259.609 313.57 259.578H308.32ZM340.148 290H335.648V255.875H340.148V290ZM367.664 281.094H353.367L350.156 290H345.516L358.547 255.875H362.484L375.539 290H370.922L367.664 281.094ZM354.727 277.391H366.328L360.516 261.43L354.727 277.391ZM125.062 335.172C124.641 338.781 123.305 341.57 121.055 343.539C118.82 345.492 115.844 346.469 112.125 346.469C108.094 346.469 104.859 345.023 102.422 342.133C100 339.242 98.7891 335.375 98.7891 330.531V327.25C98.7891 324.078 99.3516 321.289 100.477 318.883C101.617 316.477 103.227 314.633 105.305 313.352C107.383 312.055 109.789 311.406 112.523 311.406C116.148 311.406 119.055 312.422 121.242 314.453C123.43 316.469 124.703 319.266 125.062 322.844H120.539C120.148 320.125 119.297 318.156 117.984 316.938C116.688 315.719 114.867 315.109 112.523 315.109C109.648 315.109 107.391 316.172 105.75 318.297C104.125 320.422 103.312 323.445 103.312 327.367V330.672C103.312 334.375 104.086 337.32 105.633 339.508C107.18 341.695 109.344 342.789 112.125 342.789C114.625 342.789 116.539 342.227 117.867 341.102C119.211 339.961 120.102 337.984 120.539 335.172H125.062ZM157.477 330.039C157.477 333.383 156.914 336.305 155.789 338.805C154.664 341.289 153.07 343.188 151.008 344.5C148.945 345.812 146.539 346.469 143.789 346.469C141.102 346.469 138.719 345.812 136.641 344.5C134.562 343.172 132.945 341.289 131.789 338.852C130.648 336.398 130.062 333.562 130.031 330.344V327.883C130.031 324.602 130.602 321.703 131.742 319.188C132.883 316.672 134.492 314.75 136.57 313.422C138.664 312.078 141.055 311.406 143.742 311.406C146.477 311.406 148.883 312.07 150.961 313.398C153.055 314.711 154.664 316.625 155.789 319.141C156.914 321.641 157.477 324.555 157.477 327.883V330.039ZM153 327.836C153 323.789 152.188 320.688 150.562 318.531C148.938 316.359 146.664 315.273 143.742 315.273C140.898 315.273 138.656 316.359 137.016 318.531C135.391 320.688 134.555 323.688 134.508 327.531V330.039C134.508 333.961 135.328 337.047 136.969 339.297C138.625 341.531 140.898 342.648 143.789 342.648C146.695 342.648 148.945 341.594 150.539 339.484C152.133 337.359 152.953 334.32 153 330.367V327.836ZM170.039 311.875L181.195 339.719L192.352 311.875H198.188V346H193.688V332.711L194.109 318.367L182.906 346H179.461L168.281 318.438L168.727 332.711V346H164.227V311.875H170.039ZM210.961 346H206.461V311.875H210.961V346ZM245.438 346H240.914L223.734 319.703V346H219.211V311.875H223.734L240.961 338.289V311.875H245.438V346ZM278.625 341.523C277.469 343.18 275.852 344.422 273.773 345.25C271.711 346.062 269.305 346.469 266.555 346.469C263.773 346.469 261.305 345.82 259.148 344.523C256.992 343.211 255.32 341.352 254.133 338.945C252.961 336.539 252.359 333.75 252.328 330.578V327.602C252.328 322.461 253.523 318.477 255.914 315.648C258.32 312.82 261.695 311.406 266.039 311.406C269.602 311.406 272.469 312.32 274.641 314.148C276.812 315.961 278.141 318.539 278.625 321.883H274.125C273.281 317.367 270.594 315.109 266.062 315.109C263.047 315.109 260.758 316.172 259.195 318.297C257.648 320.406 256.867 323.469 256.852 327.484V330.273C256.852 334.102 257.727 337.148 259.477 339.414C261.227 341.664 263.594 342.789 266.578 342.789C268.266 342.789 269.742 342.602 271.008 342.227C272.273 341.852 273.32 341.219 274.148 340.328V332.664H266.25V329.008H278.625V341.523ZM308.109 330.789C304.25 329.68 301.438 328.32 299.672 326.711C297.922 325.086 297.047 323.086 297.047 320.711C297.047 318.023 298.117 315.805 300.258 314.055C302.414 312.289 305.211 311.406 308.648 311.406C310.992 311.406 313.078 311.859 314.906 312.766C316.75 313.672 318.172 314.922 319.172 316.516C320.188 318.109 320.695 319.852 320.695 321.742H316.172C316.172 319.68 315.516 318.062 314.203 316.891C312.891 315.703 311.039 315.109 308.648 315.109C306.43 315.109 304.695 315.602 303.445 316.586C302.211 317.555 301.594 318.906 301.594 320.641C301.594 322.031 302.18 323.211 303.352 324.18C304.539 325.133 306.547 326.008 309.375 326.805C312.219 327.602 314.438 328.484 316.031 329.453C317.641 330.406 318.828 331.523 319.594 332.805C320.375 334.086 320.766 335.594 320.766 337.328C320.766 340.094 319.688 342.312 317.531 343.984C315.375 345.641 312.492 346.469 308.883 346.469C306.539 346.469 304.352 346.023 302.32 345.133C300.289 344.227 298.719 342.992 297.609 341.43C296.516 339.867 295.969 338.094 295.969 336.109H300.492C300.492 338.172 301.25 339.805 302.766 341.008C304.297 342.195 306.336 342.789 308.883 342.789C311.258 342.789 313.078 342.305 314.344 341.336C315.609 340.367 316.242 339.047 316.242 337.375C316.242 335.703 315.656 334.414 314.484 333.508C313.312 332.586 311.188 331.68 308.109 330.789ZM352.805 330.039C352.805 333.383 352.242 336.305 351.117 338.805C349.992 341.289 348.398 343.188 346.336 344.5C344.273 345.812 341.867 346.469 339.117 346.469C336.43 346.469 334.047 345.812 331.969 344.5C329.891 343.172 328.273 341.289 327.117 338.852C325.977 336.398 325.391 333.562 325.359 330.344V327.883C325.359 324.602 325.93 321.703 327.07 319.188C328.211 316.672 329.82 314.75 331.898 313.422C333.992 312.078 336.383 311.406 339.07 311.406C341.805 311.406 344.211 312.07 346.289 313.398C348.383 314.711 349.992 316.625 351.117 319.141C352.242 321.641 352.805 324.555 352.805 327.883V330.039ZM348.328 327.836C348.328 323.789 347.516 320.688 345.891 318.531C344.266 316.359 341.992 315.273 339.07 315.273C336.227 315.273 333.984 316.359 332.344 318.531C330.719 320.688 329.883 323.688 329.836 327.531V330.039C329.836 333.961 330.656 337.047 332.297 339.297C333.953 341.531 336.227 342.648 339.117 342.648C342.023 342.648 344.273 341.594 345.867 339.484C347.461 337.359 348.281 334.32 348.328 330.367V327.836ZM385.805 330.039C385.805 333.383 385.242 336.305 384.117 338.805C382.992 341.289 381.398 343.188 379.336 344.5C377.273 345.812 374.867 346.469 372.117 346.469C369.43 346.469 367.047 345.812 364.969 344.5C362.891 343.172 361.273 341.289 360.117 338.852C358.977 336.398 358.391 333.562 358.359 330.344V327.883C358.359 324.602 358.93 321.703 360.07 319.188C361.211 316.672 362.82 314.75 364.898 313.422C366.992 312.078 369.383 311.406 372.07 311.406C374.805 311.406 377.211 312.07 379.289 313.398C381.383 314.711 382.992 316.625 384.117 319.141C385.242 321.641 385.805 324.555 385.805 327.883V330.039ZM381.328 327.836C381.328 323.789 380.516 320.688 378.891 318.531C377.266 316.359 374.992 315.273 372.07 315.273C369.227 315.273 366.984 316.359 365.344 318.531C363.719 320.688 362.883 323.688 362.836 327.531V330.039C362.836 333.961 363.656 337.047 365.297 339.297C366.953 341.531 369.227 342.648 372.117 342.648C375.023 342.648 377.273 341.594 378.867 339.484C380.461 337.359 381.281 334.32 381.328 330.367V327.836ZM418.781 346H414.258L397.078 319.703V346H392.555V311.875H397.078L414.305 338.289V311.875H418.781V346Z" fill="black"/>
</svg>
